<?xml version="1.0" encoding="UTF-8"?>
<svg xmlns="http://www.w3.org/2000/svg" width="1920" height="1080" viewBox="0 0 1920 1080" role="img" aria-label="EVOCON Industrial Predictive Quality MVP interface">
  <defs>
    <linearGradient id="pageBg" x1="0" x2="1" y1="0" y2="1">
      <stop offset="0%" stop-color="#f5f5f7"/>
      <stop offset="100%" stop-color="#eef4fb"/>
    </linearGradient>
    <linearGradient id="blueGrad" x1="0" x2="1" y1="0" y2="1">
      <stop offset="0%" stop-color="#2f80ed"/>
      <stop offset="100%" stop-color="#0057b8"/>
    </linearGradient>
    <radialGradient id="metalFace" cx="42%" cy="32%" r="72%">
      <stop offset="0%" stop-color="#f8fafc"/>
      <stop offset="42%" stop-color="#cbd5e1"/>
      <stop offset="72%" stop-color="#94a3b8"/>
      <stop offset="100%" stop-color="#64748b"/>
    </radialGradient>
    <linearGradient id="metalEdge" x1="0" x2="1" y1="0" y2="1">
      <stop offset="0%" stop-color="#e2e8f0"/>
      <stop offset="48%" stop-color="#94a3b8"/>
      <stop offset="100%" stop-color="#475569"/>
    </linearGradient>
    <radialGradient id="heatBlob" cx="50%" cy="50%" r="60%">
      <stop offset="0%" stop-color="#dc2626" stop-opacity="0.78"/>
      <stop offset="48%" stop-color="#f59e0b" stop-opacity="0.50"/>
      <stop offset="100%" stop-color="#fde68a" stop-opacity="0"/>
    </radialGradient>
    <filter id="windowShadow" x="-8%" y="-8%" width="116%" height="125%">
      <feDropShadow dx="0" dy="18" stdDeviation="22" flood-color="#0f172a" flood-opacity="0.10"/>
    </filter>
    <filter id="softShadow" x="-15%" y="-15%" width="130%" height="130%">
      <feDropShadow dx="0" dy="9" stdDeviation="10" flood-color="#0f172a" flood-opacity="0.10"/>
    </filter>
    <filter id="heatBlur">
      <feGaussianBlur stdDeviation="7"/>
    </filter>
    <style>
      .card { fill: rgba(255,255,255,.94); stroke: rgba(29,29,31,.10); stroke-width: 1.3; }
      .panel { fill: #fbfbfd; stroke: rgba(29,29,31,.10); stroke-width: 1.2; }
      .title { fill: #1d1d1f; font-size: 27px; font-weight: 700; letter-spacing: -0.35px; }
      .section { fill: #1d1d1f; font-size: 30px; font-weight: 700; letter-spacing: -0.55px; }
      .h3 { fill: #1d1d1f; font-size: 18px; font-weight: 650; letter-spacing: -0.25px; }
      .body { fill: #3a3a3c; font-size: 15px; font-weight: 520; }
      .small { fill: #6e6e73; font-size: 13px; font-weight: 520; }
      .tiny { fill: #8e8e93; font-size: 12px; font-weight: 520; }
      .mono { fill: #1d1d1f; font-size: 16px; font-weight: 650; }
      .metric { fill: #1d1d1f; font-size: 24px; font-weight: 720; }
      .blueText { fill: #0057b8; }
      .greenText { fill: #248a3d; }
      .amberText { fill: #c66a00; }
      .redText { fill: #d70015; }
      .blueLine { fill: none; stroke: #0071e3; stroke-width: 4; stroke-linecap: round; stroke-linejoin: round; }
      .greenLine { fill: none; stroke: #248a3d; stroke-width: 4; stroke-linecap: round; stroke-linejoin: round; }
      .amberLine { fill: none; stroke: #c66a00; stroke-width: 4; stroke-linecap: round; stroke-linejoin: round; }
    </style>
    <symbol id="industrialPart" viewBox="-180 -150 360 300">
      <ellipse cx="0" cy="115" rx="140" ry="32" fill="#0f172a" opacity="0.13"/>
      <circle cx="0" cy="0" r="126" fill="url(#metalEdge)"/>
      <circle cx="-8" cy="-8" r="112" fill="url(#metalFace)" stroke="#e2e8f0" stroke-width="3"/>
      <circle cx="0" cy="0" r="55" fill="#f8fafc" stroke="#64748b" stroke-width="13"/>
      <circle cx="0" cy="0" r="27" fill="#e2e8f0" stroke="#94a3b8" stroke-width="5"/>
      <g fill="#f8fafc" stroke="#64748b" stroke-width="5">
        <circle cx="0" cy="-86" r="16"/>
        <circle cx="74" cy="-43" r="16"/>
        <circle cx="74" cy="43" r="16"/>
        <circle cx="0" cy="86" r="16"/>
        <circle cx="-74" cy="43" r="16"/>
        <circle cx="-74" cy="-43" r="16"/>
      </g>
      <path d="M-106,-12 C-69,-43 -10,-55 37,-40 C77,-28 96,-2 105,20" fill="none" stroke="#ffffff" stroke-width="10" stroke-linecap="round" opacity="0.42"/>
      <path d="M-98,62 C-38,88 38,88 98,52" fill="none" stroke="#475569" stroke-width="4" stroke-linecap="round" opacity="0.22"/>
      <path d="M-115,-74 L-98,-90 M100,78 L118,60 M-126,16 L-110,6 M88,-99 L106,-84" stroke="#475569" stroke-width="3" stroke-linecap="round" opacity="0.22"/>
    </symbol>
    <marker id="arrow" viewBox="0 0 10 10" refX="8.5" refY="5" markerWidth="9" markerHeight="9" orient="auto">
      <path d="M0,0 L10,5 L0,10 Z" fill="#94a3b8"/>
    </marker>
  </defs>

  <rect width="1920" height="1080" fill="url(#pageBg)"/>
  <rect x="46" y="40" width="1828" height="1000" rx="34" fill="#ffffff" filter="url(#windowShadow)"/>
  <rect x="46" y="40" width="1828" height="86" rx="34" fill="#fbfdff"/>
  <line x1="46" y1="126" x2="1874" y2="126" stroke="#e8eef7"/>

  <g transform="translate(82 62)">
    <rect x="0" y="-16" width="46" height="46" rx="14" fill="url(#blueGrad)"/>
    <text x="23" y="14" text-anchor="middle" fill="#ffffff" font-size="16" font-weight="800">EV</text>
    <text x="64" y="0" class="h3">EVOCON Solutions</text>
    <text x="64" y="28" class="body">Industrial Predictive Quality</text>
  </g>
  <text x="520" y="78" class="body" font-weight="650">Plant 01 &#183; Line 02 &#183; Live Analysis</text>
  <g transform="translate(1582 60)">
    <rect x="0" y="-19" width="108" height="38" rx="19" fill="#eff6ff" stroke="#bfdbfe"/>
    <circle cx="22" cy="0" r="6" fill="#2563eb"/>
    <text x="41" y="5" class="small blueText">Local AI</text>
    <rect x="126" y="-19" width="150" height="38" rx="19" fill="#ecfdf5" stroke="#bbf7d0"/>
    <circle cx="148" cy="0" r="6" fill="#16a34a"/>
    <text x="167" y="5" class="small greenText">System Online</text>
  </g>

  <!-- Visual Inspection -->
  <rect x="80" y="150" width="1020" height="630" rx="28" class="card"/>
  <text x="112" y="196" class="section">Visual Inspection</text>
  <text x="112" y="223" class="body">Localized visual anomaly detection with review recommendation</text>

  <g transform="translate(110 246)">
    <rect x="0" y="0" width="460" height="370" rx="22" class="panel"/>
    <text x="24" y="36" class="h3">Original Image</text>
    <rect x="24" y="58" width="412" height="258" rx="18" fill="#f4f7fb" stroke="#e1e9f4"/>
    <line x1="42" y1="285" x2="418" y2="285" stroke="#d9e3ef"/>
    <use href="#industrialPart" x="95" y="86" width="270" height="225"/>
    <text x="24" y="346" class="body">Part A-1842</text>
    <text x="112" y="346" class="small">machining station</text>
  </g>

  <g transform="translate(610 246)">
    <rect x="0" y="0" width="460" height="370" rx="22" class="panel"/>
    <text x="24" y="36" class="h3">Anomaly Heatmap</text>
    <rect x="24" y="58" width="412" height="258" rx="18" fill="#f4f7fb" stroke="#e1e9f4"/>
    <line x1="42" y1="285" x2="418" y2="285" stroke="#d9e3ef"/>
    <use href="#industrialPart" x="95" y="86" width="270" height="225"/>
    <ellipse cx="285" cy="157" rx="52" ry="30" fill="url(#heatBlob)" filter="url(#heatBlur)"/>
    <ellipse cx="285" cy="157" rx="42" ry="23" fill="url(#heatBlob)" opacity="0.85"/>
    <path d="M260 153 C276 143 306 151 323 138" fill="none" stroke="#b91c1c" stroke-width="5" stroke-linecap="round"/>
    <rect x="238" y="121" width="96" height="70" rx="13" fill="none" stroke="#dc2626" stroke-width="3" stroke-dasharray="8 7"/>
    <text x="24" y="346" class="body">Localized surface deviation</text>
  </g>

  <g transform="translate(116 660)">
    <rect x="0" y="0" width="238" height="58" rx="18" fill="#fff7ed" stroke="#fed7aa"/>
    <text x="18" y="24" class="small amberText">Anomaly Score</text>
    <text x="172" y="39" class="metric">0.94</text>
    <rect x="270" y="0" width="270" height="58" rx="18" fill="#fffbeb" stroke="#fde68a"/>
    <text x="288" y="24" class="small amberText">Status</text>
    <text x="360" y="39" class="metric">Review</text>
    <rect x="575" y="11" width="130" height="36" rx="18" fill="#eff6ff" stroke="#bfdbfe"/>
    <text x="600" y="34" class="small blueText">Visual anomaly</text>
    <rect x="720" y="11" width="126" height="36" rx="18" fill="#ecfdf5" stroke="#bbf7d0"/>
    <text x="741" y="34" class="small greenText">Local pilot</text>
  </g>

  <!-- Inspection Priority -->
  <rect x="1130" y="150" width="710" height="300" rx="28" class="card"/>
  <text x="1162" y="196" class="section">Inspection Priority</text>
  <text x="1162" y="223" class="body">Ranked review queue for operators</text>
  <g transform="translate(1162 242)">
    <rect x="0" y="0" width="646" height="58" rx="18" fill="#fff7ed" stroke="#fed7aa"/>
    <text x="20" y="36" class="mono">Part A-1842</text>
    <rect x="190" y="24" width="260" height="12" rx="6" fill="#ffedd5"/>
    <rect x="190" y="24" width="244" height="12" rx="6" fill="#f59e0b"/>
    <text x="480" y="36" class="mono">0.94</text>
    <text x="552" y="36" class="body amberText">Review</text>

    <text x="20" y="91" class="mono">Part A-1837</text>
    <rect x="190" y="79" width="260" height="10" rx="5" fill="#ffedd5"/>
    <rect x="190" y="79" width="211" height="10" rx="5" fill="#f59e0b"/>
    <text x="480" y="91" class="mono">0.81</text>
    <text x="552" y="91" class="body amberText">Review</text>

    <text x="20" y="146" class="mono">Part A-1819</text>
    <rect x="190" y="134" width="260" height="10" rx="5" fill="#dbeafe"/>
    <rect x="190" y="134" width="161" height="10" rx="5" fill="#2563eb"/>
    <text x="480" y="146" class="mono">0.62</text>
    <text x="552" y="146" class="body blueText">Monitor</text>

    <text x="20" y="201" class="mono">Part A-1811</text>
    <rect x="190" y="189" width="260" height="10" rx="5" fill="#dcfce7"/>
    <rect x="190" y="189" width="73" height="10" rx="5" fill="#16a34a"/>
    <text x="480" y="201" class="mono">0.28</text>
    <text x="552" y="201" class="body greenText">Normal</text>
  </g>

  <!-- Process Deviation -->
  <rect x="1130" y="480" width="710" height="300" rx="28" class="card"/>
  <text x="1162" y="526" class="section">Process Deviation</text>
  <text x="1162" y="553" class="body">Detects when sensor behavior starts drifting from expected process evolution</text>
  <g transform="translate(1162 580)">
    <rect x="0" y="0" width="646" height="126" rx="18" fill="#fbfdff" stroke="#e6edf7"/>
    <rect x="405" y="14" width="210" height="92" rx="14" fill="#fef3c7" opacity="0.48"/>
    <line x1="405" y1="14" x2="405" y2="106" stroke="#d97706" stroke-width="2.5" stroke-dasharray="6 7"/>
    <rect x="420" y="15" width="160" height="44" rx="13" fill="#fffbeb" stroke="#fde68a"/>
    <text x="436" y="36" class="small amberText">Deviation detected</text>
    <text x="436" y="52" class="tiny amberText">Cycle 140</text>
    <text x="18" y="34" class="tiny">Vibration</text>
    <text x="18" y="74" class="tiny">Spindle Current</text>
    <text x="18" y="111" class="tiny">Temperature</text>
    <path class="blueLine" d="M118 35 C165 25 207 44 247 34 C290 24 327 39 370 42 C407 45 443 65 480 74 C520 83 558 88 612 98"/>
    <path class="greenLine" d="M118 75 C165 71 210 77 255 70 C300 64 335 74 374 77 C422 82 460 91 500 89 C545 87 575 94 612 101"/>
    <path class="amberLine" d="M118 110 C162 107 205 111 248 106 C292 101 331 105 372 107 C420 112 450 119 492 121 C540 122 576 117 612 112"/>
  </g>
  <g transform="translate(1162 724)">
    <rect x="0" y="0" width="188" height="46" rx="15" fill="#eff6ff" stroke="#bfdbfe"/>
    <text x="16" y="19" class="tiny blueText">Temporal Surprise</text>
    <text x="16" y="37" class="mono">0.76</text>
    <rect x="210" y="0" width="188" height="46" rx="15" fill="#fffbeb" stroke="#fde68a"/>
    <text x="226" y="19" class="tiny amberText">Persistence</text>
    <text x="226" y="37" class="mono">8 cycles</text>
    <rect x="420" y="0" width="188" height="46" rx="15" fill="#fff7ed" stroke="#fed7aa"/>
    <text x="436" y="19" class="tiny amberText">Risk Trend</text>
    <text x="436" y="37" class="mono">Rising</text>
  </g>

  <!-- Workflow -->
  <rect x="80" y="810" width="1760" height="170" rx="28" class="card"/>
  <text x="112" y="858" class="section">Local Pilot Workflow</text>
  <text x="112" y="887" class="body">Local workstation pilot</text>
  <text x="112" y="911" class="body">No dedicated infrastructure required</text>

  <g transform="translate(430 848)">
    <rect x="0" y="0" width="214" height="74" rx="22" fill="#f8fafc" stroke="#e2e8f0"/>
    <text x="107" y="32" text-anchor="middle" class="h3">Camera / Sensors</text>
    <text x="107" y="55" text-anchor="middle" class="tiny">Images, signals, process data</text>
    <line x1="236" y1="37" x2="304" y2="37" stroke="#94a3b8" stroke-width="3" marker-end="url(#arrow)"/>

    <rect x="330" y="0" width="224" height="74" rx="22" fill="#eff6ff" stroke="#bfdbfe"/>
    <text x="442" y="32" text-anchor="middle" class="h3 blueText">Feature Extraction</text>
    <text x="442" y="55" text-anchor="middle" class="tiny blueText">Visual and sensor patterns</text>
    <line x1="576" y1="37" x2="644" y2="37" stroke="#94a3b8" stroke-width="3" marker-end="url(#arrow)"/>

    <rect x="670" y="0" width="250" height="74" rx="22" fill="#f0fdf4" stroke="#bbf7d0"/>
    <text x="795" y="32" text-anchor="middle" class="h3 greenText">Anomaly &amp; Risk Models</text>
    <text x="795" y="55" text-anchor="middle" class="tiny greenText">Scores, heatmaps, trends</text>
    <line x1="942" y1="37" x2="1010" y2="37" stroke="#94a3b8" stroke-width="3" marker-end="url(#arrow)"/>

    <rect x="1036" y="0" width="230" height="74" rx="22" fill="#fff7ed" stroke="#fed7aa"/>
    <text x="1151" y="32" text-anchor="middle" class="h3 amberText">Prioritized Review</text>
    <text x="1151" y="55" text-anchor="middle" class="tiny amberText">Top alerts for inspection</text>
  </g>

  <g transform="translate(112 936)">
    <rect x="0" y="0" width="156" height="34" rx="17" fill="#eff6ff" stroke="#bfdbfe"/>
    <text x="18" y="23" class="small blueText">Sensor risk scoring</text>
    <rect x="172" y="0" width="152" height="34" rx="17" fill="#fffbeb" stroke="#fde68a"/>
    <text x="190" y="23" class="small amberText">Temporal deviation</text>
    <rect x="340" y="0" width="214" height="34" rx="17" fill="#f8fafc" stroke="#e2e8f0"/>
    <text x="358" y="23" class="small">Self-supervised features</text>
  </g>

  <text x="1394" y="1014" class="tiny">Illustrative MVP interface &#183; Synthetic demonstration data</text>
</svg>
